<!-- Generated by IcoMoon.io -->
<svg version="1.1" xmlns="http://www.w3.org/2000/svg" width="1024" height="1024" viewBox="0 0 1024 1024">
<g id="icomoon-ignore">
</g>
<path d="M0 217.75c0-22.752 18.443-41.196 41.196-41.196h941.61c22.749 0 41.194 18.444 41.194 41.196s-18.446 41.195-41.194 41.195h-941.61c-22.752 0-41.196-18.444-41.196-41.195z"></path>
<path d="M0 512.006c0-22.751 18.443-41.195 41.196-41.195h941.61c22.749 0 41.194 18.444 41.194 41.195s-18.446 41.196-41.194 41.196h-941.61c-22.752 0-41.196-18.444-41.196-41.196z"></path>
<path d="M0 806.252c0-22.753 18.443-41.194 41.196-41.194h941.61c22.749 0 41.194 18.441 41.194 41.194s-18.446 41.194-41.194 41.194h-941.61c-22.752 0-41.196-18.441-41.196-41.194z"></path>
</svg>
